<svg width="9" height="6" viewBox="0 0 9 6" fill="none" xmlns="http://www.w3.org/2000/svg">
<path opacity="0.25" d="M4.51917 4.49918C4.5799 4.4954 4.63762 4.47141 4.68314 4.43103L7.40884 1.97764C7.48184 1.9123 7.51435 1.81291 7.49407 1.71705C7.47379 1.62119 7.40382 1.54349 7.31061 1.51331C7.2174 1.48313 7.11517 1.50509 7.04257 1.57088L4.5 3.86028L1.95743 1.57088C1.88483 1.50509 1.7826 1.48313 1.68939 1.51331C1.59618 1.54349 1.52621 1.62119 1.50593 1.71705C1.48565 1.81291 1.51816 1.9123 1.59116 1.97764L4.31687 4.43103C4.37223 4.48031 4.44527 4.50491 4.51917 4.49918Z" fill="black" stroke="black" stroke-width="1.2"/>
</svg>
